<svg width="553" height="516" viewBox="0 0 553 516" fill="none" xmlns="http://www.w3.org/2000/svg">
<path d="M253.935 111.605H252.117V61.8164C252.117 54.1738 249.081 46.8443 243.677 41.4401C238.273 36.036 230.943 33 223.301 33H117.816C114.032 33 110.285 33.7453 106.789 35.1935C103.293 36.6416 100.116 38.7642 97.4402 41.4401C94.7643 44.1159 92.6417 47.2926 91.1935 50.7888C89.7454 54.2849 89 58.0321 89 61.8163V334.962C89 338.746 89.7453 342.493 91.1935 345.989C92.6417 349.485 94.7643 352.662 97.4401 355.338C100.116 358.014 103.293 360.136 106.789 361.584C110.285 363.033 114.032 363.778 117.816 363.778H223.301C230.943 363.778 238.273 360.742 243.677 355.338C249.081 349.934 252.117 342.604 252.117 334.962V147.046H253.935V111.605Z" fill="#4E4343"/>
<path d="M224.463 40.497H210.694C211.327 42.0494 211.569 43.7337 211.398 45.4016C211.227 47.0694 210.648 48.6696 209.713 50.0611C208.778 51.4527 207.515 52.5929 206.035 53.3813C204.556 54.1697 202.905 54.5822 201.228 54.5823H140.798C139.121 54.5822 137.47 54.1697 135.991 53.3813C134.511 52.5929 133.248 51.4527 132.313 50.0611C131.377 48.6696 130.799 47.0694 130.628 45.4015C130.457 43.7337 130.698 42.0494 131.332 40.4969H118.471C112.764 40.4969 107.29 42.7642 103.254 46.7999C99.2187 50.8357 96.9514 56.3093 96.9514 62.0167V334.761C96.9514 340.469 99.2187 345.942 103.254 349.978C107.29 354.014 112.764 356.281 118.471 356.281H224.463C227.289 356.281 230.088 355.724 232.699 354.643C235.31 353.561 237.682 351.976 239.68 349.978C241.679 347.98 243.264 345.607 244.345 342.996C245.427 340.386 245.983 337.587 245.983 334.761V62.0167C245.983 59.1907 245.427 56.3924 244.345 53.7815C243.264 51.1706 241.679 48.7982 239.68 46.8C237.682 44.8017 235.31 43.2165 232.699 42.1351C230.088 41.0536 227.289 40.497 224.463 40.497Z" fill="white"/>
<path d="M237.237 254.716H110.149C109.525 254.715 108.927 254.467 108.486 254.025C108.045 253.584 107.796 252.986 107.796 252.362V220.837C107.796 220.213 108.045 219.615 108.486 219.174C108.927 218.733 109.525 218.485 110.149 218.484H237.237C237.861 218.485 238.459 218.733 238.9 219.174C239.342 219.615 239.59 220.213 239.591 220.837V252.363C239.59 252.986 239.341 253.585 238.9 254.026C238.459 254.467 237.861 254.715 237.237 254.716ZM110.149 219.425C109.775 219.426 109.416 219.574 109.151 219.839C108.886 220.104 108.737 220.463 108.737 220.837V252.363C108.737 252.737 108.886 253.096 109.151 253.361C109.416 253.625 109.775 253.774 110.149 253.775H237.237C237.612 253.774 237.971 253.625 238.235 253.361C238.5 253.096 238.649 252.737 238.649 252.363V220.837C238.649 220.463 238.5 220.104 238.235 219.839C237.971 219.574 237.612 219.426 237.237 219.425H110.149Z" fill="#E6E6E6"/>
<path d="M126.623 246.484C132.082 246.484 136.508 242.059 136.508 236.6C136.508 231.14 132.082 226.715 126.623 226.715C121.164 226.715 116.739 231.14 116.739 236.6C116.739 242.059 121.164 246.484 126.623 246.484Z" fill="#D57979"/>
<path d="M149.452 230.01C149.02 230.017 148.608 230.194 148.305 230.502C148.002 230.81 147.832 231.225 147.832 231.657C147.832 232.09 148.002 232.505 148.305 232.813C148.608 233.121 149.02 233.298 149.452 233.305H227.117C227.553 233.313 227.976 233.148 228.291 232.845C228.606 232.542 228.787 232.126 228.796 231.689C228.804 231.252 228.639 230.83 228.336 230.515C228.033 230.2 227.617 230.019 227.18 230.01L227.171 230.01C227.153 230.01 227.135 230.01 227.117 230.01H149.452Z" fill="#E6E6E6"/>
<path d="M149.452 239.895C149.02 239.902 148.608 240.079 148.305 240.387C148.002 240.695 147.832 241.11 147.832 241.542C147.832 241.974 148.002 242.389 148.305 242.697C148.608 243.005 149.02 243.182 149.452 243.189H227.117C227.553 243.195 227.974 243.028 228.287 242.724C228.6 242.421 228.78 242.005 228.787 241.569C228.794 241.133 228.628 240.712 228.325 240.398C228.022 240.084 227.607 239.903 227.171 239.895C227.153 239.894 227.135 239.894 227.117 239.895H149.452Z" fill="#E6E6E6"/>
<path d="M237.237 307.433H110.149C109.525 307.433 108.927 307.185 108.486 306.743C108.045 306.302 107.796 305.704 107.796 305.08V273.555C107.796 272.931 108.045 272.333 108.486 271.892C108.927 271.451 109.525 271.203 110.149 271.202H237.237C237.861 271.203 238.459 271.451 238.9 271.892C239.342 272.333 239.59 272.931 239.591 273.555V305.08C239.59 305.704 239.341 306.302 238.9 306.744C238.459 307.185 237.861 307.433 237.237 307.433ZM110.149 272.143C109.775 272.143 109.416 272.292 109.151 272.557C108.886 272.822 108.737 273.181 108.737 273.555V305.08C108.737 305.455 108.886 305.814 109.151 306.079C109.416 306.343 109.775 306.492 110.149 306.493H237.237C237.612 306.492 237.971 306.343 238.235 306.079C238.5 305.814 238.649 305.455 238.649 305.08V273.555C238.649 273.181 238.5 272.822 238.235 272.557C237.971 272.292 237.612 272.143 237.237 272.143H110.149Z" fill="#E6E6E6"/>
<path d="M126.623 299.202C132.082 299.202 136.508 294.776 136.508 289.317C136.508 283.858 132.082 279.433 126.623 279.433C121.164 279.433 116.739 283.858 116.739 289.317C116.739 294.776 121.164 299.202 126.623 299.202Z" fill="#8B94C2"/>
<path d="M149.452 282.728C149.02 282.735 148.608 282.912 148.305 283.22C148.002 283.528 147.832 283.943 147.832 284.375C147.832 284.808 148.002 285.222 148.305 285.531C148.608 285.839 149.02 286.016 149.452 286.023H227.117C227.553 286.029 227.974 285.862 228.287 285.558C228.6 285.254 228.78 284.839 228.787 284.402C228.794 283.966 228.628 283.545 228.325 283.231C228.022 282.917 227.607 282.736 227.171 282.728C227.153 282.728 227.135 282.728 227.117 282.728H149.452Z" fill="#E6E6E6"/>
<path d="M149.452 292.613C149.02 292.62 148.608 292.796 148.305 293.105C148.002 293.413 147.832 293.828 147.832 294.26C147.832 294.692 148.002 295.107 148.305 295.415C148.608 295.723 149.02 295.9 149.452 295.907H227.117C227.553 295.913 227.974 295.746 228.287 295.442C228.6 295.139 228.78 294.723 228.787 294.287C228.794 293.851 228.628 293.429 228.325 293.116C228.022 292.802 227.607 292.621 227.171 292.613C227.153 292.612 227.135 292.612 227.117 292.613H149.452Z" fill="#E6E6E6"/>
<path d="M171.019 189.297C159.164 189.301 147.793 184.597 139.407 176.218C131.021 167.839 126.308 156.472 126.303 144.618V144.581C126.303 144.487 126.303 144.388 126.308 144.295C126.444 119.807 146.503 99.8643 171.019 99.8643C182.878 99.8629 194.252 104.573 202.639 112.958C211.026 121.343 215.738 132.716 215.74 144.575C215.741 156.434 211.031 167.809 202.646 176.196C194.261 184.582 182.888 189.295 171.029 189.296H171.019V189.297ZM171.019 100.805C159.462 100.83 148.382 105.416 140.186 113.564C131.991 121.713 127.342 132.766 127.25 144.323C127.245 144.423 127.245 144.505 127.245 144.579C127.244 153.238 129.81 161.703 134.62 168.903C139.43 176.103 146.267 181.716 154.266 185.03C162.265 188.345 171.068 189.213 179.561 187.525C188.053 185.836 195.855 181.668 201.978 175.546C208.102 169.424 212.272 161.623 213.963 153.131C215.653 144.639 214.787 135.836 211.475 127.836C208.162 119.836 202.551 112.997 195.352 108.186C188.153 103.374 179.689 100.806 171.03 100.805H171.019Z" fill="#D1D4A6"/>
<g clip-path="url(#clip0_1112_583)">
<path d="M378.755 183.757C378.491 183.256 378.048 182.889 377.506 182.723L370.556 180.593C367.694 179.717 365.192 178.016 363.321 175.678L359.569 170.988C358.454 169.594 356.792 168.796 355.006 168.796H350.993C349.209 168.796 347.546 169.594 346.431 170.989L342.679 175.678C340.809 178.016 338.307 179.715 335.444 180.593L328.493 182.723C327.952 182.889 327.509 183.256 327.245 183.757C326.981 184.257 326.928 184.831 327.098 185.37C327.272 185.928 327.657 186.377 328.181 186.635C328.707 186.893 329.297 186.924 329.846 186.72L331.823 185.986C337.782 183.775 343.097 180.391 347.62 175.927L347.672 175.875C348.803 174.758 350.303 174.142 351.892 174.142H354.108C355.697 174.142 357.196 174.758 358.328 175.875L358.381 175.928C362.904 180.391 368.218 183.775 374.177 185.986L376.154 186.72C376.702 186.924 377.293 186.893 377.819 186.635C378.343 186.377 378.728 185.928 378.903 185.371C379.072 184.831 379.02 184.257 378.755 183.757ZM353 172.783C352.318 172.783 351.765 172.229 351.765 171.548C351.765 170.867 352.318 170.313 353 170.313C353.681 170.313 354.235 170.867 354.235 171.548C354.235 172.229 353.681 172.783 353 172.783Z" fill="black"/>
<path d="M356.537 160.175C356.537 161.109 356.173 161.989 355.512 162.651L354.629 163.534C353.972 164.191 353.609 165.064 353.609 165.994V167.599H352.413V165.994C352.413 164.745 352.899 163.571 353.782 162.688L354.666 161.804C355.101 161.369 355.34 160.79 355.34 160.175C355.34 158.534 354.006 157.201 352.366 157.201C350.727 157.201 349.392 158.534 349.392 160.175V160.331C349.392 160.662 349.124 160.93 348.793 160.93C348.463 160.93 348.195 160.662 348.195 160.331V160.175C348.195 157.875 350.066 156.004 352.366 156.004C354.666 156.004 356.537 157.875 356.537 160.175Z" fill="black"/>
</g>
<g clip-path="url(#clip1_1112_583)">
<path d="M381.69 268.034V273.414C381.684 275.392 380.082 276.994 378.103 277H327.897C325.918 276.994 324.316 275.392 324.31 273.414V268.034H381.69Z" fill="#C03A2B"/>
<path d="M402.741 211.606L386.657 218.993L385.276 215.676L381.69 207.069V268.034H324.31V207.069L320.724 215.676L319.343 218.993L303.259 211.606L314.412 184.279C315.002 182.809 316.209 181.675 317.712 181.177L342.241 173C342.241 173 342.241 181.966 353 181.966C363.759 181.966 363.759 173 363.759 173L388.288 181.177C389.791 181.675 390.998 182.809 391.588 184.279L402.741 211.606Z" fill="#E64C3C"/>
<path d="M319.343 218.993L317.317 223.87C317.138 224.322 316.782 224.681 316.331 224.863C315.881 225.046 315.376 225.037 314.932 224.839L302.058 219.137C301.178 218.739 300.767 217.72 301.125 216.823L303.259 211.605L319.343 218.993Z" fill="#C03A2B"/>
<path d="M403.942 219.137L391.068 224.839C390.624 225.037 390.119 225.046 389.668 224.863C389.218 224.681 388.862 224.322 388.683 223.87L386.656 218.993L402.741 211.605L404.874 216.823C405.233 217.72 404.822 218.739 403.942 219.137Z" fill="#C03A2B"/>
<path d="M324.31 196.31V207.069L320.724 215.676V196.31C320.724 195.32 321.527 194.517 322.517 194.517C323.508 194.517 324.31 195.32 324.31 196.31Z" fill="#C03A2B"/>
<path d="M385.276 196.31V215.676L381.69 207.069V196.31C381.69 195.32 382.492 194.517 383.483 194.517C384.473 194.517 385.276 195.32 385.276 196.31Z" fill="#C03A2B"/>
<path d="M348.905 202.679L342.867 214.736C342.727 215.015 342.743 215.347 342.908 215.612C343.073 215.877 343.364 216.037 343.676 216.035H347.676C348.012 216.035 348.32 216.223 348.473 216.522C348.626 216.82 348.6 217.18 348.404 217.453L341.447 227.168C341.252 227.441 341.225 227.8 341.379 228.099C341.532 228.398 341.839 228.586 342.175 228.586H344.372C344.681 228.587 344.969 228.747 345.132 229.01C345.296 229.273 345.312 229.601 345.175 229.879L338.811 242.766C338.548 243.296 338.661 243.936 339.09 244.344C339.518 244.752 340.163 244.834 340.68 244.545L361.403 230.22C361.725 229.996 361.865 229.589 361.747 229.214C361.63 228.84 361.282 228.585 360.89 228.586H358.491C358.143 228.586 357.826 228.385 357.679 228.07C357.531 227.755 357.579 227.383 357.802 227.116L364.324 219.298C364.546 219.031 364.594 218.66 364.447 218.345C364.3 218.03 363.984 217.828 363.637 217.828H360.71C360.408 217.827 360.127 217.674 359.962 217.421C359.797 217.168 359.77 216.849 359.891 216.572L365.389 204.218C365.638 203.664 365.589 203.022 365.26 202.511C364.931 202.001 364.366 201.692 363.759 201.69H350.508C349.829 201.69 349.209 202.073 348.905 202.679Z" fill="#F3D55B"/>
</g>
<path d="M195.704 132.106C186.319 132.106 178.683 139.741 178.683 149.127V175.769C178.683 185.155 186.319 192.79 195.704 192.79H222.346C231.732 192.79 239.367 185.155 239.367 175.769V149.127C239.367 139.741 231.732 132.106 222.346 132.106H195.704Z" fill="#D1D5A6"/>
<path d="M195.704 207.106C186.319 207.106 178.683 214.741 178.683 224.127V250.769C178.683 260.155 186.319 267.79 195.704 267.79H222.346C231.732 267.79 239.367 260.155 239.367 250.769V224.127C239.367 214.741 231.732 207.106 222.346 207.106H195.704Z" fill="#EC7F7F"/>
<path d="M195.704 282.106C186.319 282.106 178.683 289.741 178.683 299.127V325.769C178.683 335.155 186.319 342.79 195.704 342.79H222.346C231.732 342.79 239.367 335.155 239.367 325.769V299.127C239.367 289.741 231.732 282.106 222.346 282.106H195.704Z" fill="#8B94C2"/>
<path d="M275.842 498.808L269.023 498.751L266.004 471.833L276.069 471.918L275.842 498.808Z" fill="#A0616A"/>
<path d="M253.998 509.652C253.983 511.331 255.336 512.713 257.021 512.728L270.58 512.841L272.954 508.03L273.826 512.866L278.942 512.912L277.65 495.664L275.87 495.545L268.61 495.045L266.267 494.888L266.226 499.768L255.334 507.156C254.505 507.719 254.006 508.652 253.998 509.652Z" fill="#2F2E41"/>
<path d="M310.54 498.808L303.72 498.751L300.702 471.833L310.767 471.918L310.54 498.808Z" fill="#A0616A"/>
<path d="M288.696 509.652C288.681 511.331 290.034 512.713 291.719 512.728L305.278 512.841L307.652 508.03L308.523 512.866L313.64 512.912L312.348 495.664L310.568 495.545L303.307 495.045L300.965 494.888L300.924 499.768L290.032 507.156C289.203 507.719 288.704 508.652 288.696 509.652Z" fill="#2F2E41"/>
<path d="M249.081 281.178L276.724 282.051L302.913 287.871C302.913 287.871 300.294 291.072 309.024 299.801C309.024 299.801 320.663 320.17 312.516 339.957L309.024 419.105C309.024 419.105 319.205 474.899 311.426 492.656L301.145 493.298L283.749 419.748L275.27 340.539L271.196 418.523C271.196 418.523 286.781 472.049 276.939 493.298L265.805 492.656L246.753 418.523C246.753 418.523 238.606 332.973 239.77 316.678C240.934 300.383 249.081 281.178 249.081 281.178Z" fill="#2F2E41"/>
<path d="M341.914 156.113C338.135 157.091 335.865 160.948 336.843 164.727C337.292 166.458 338.348 167.867 339.721 168.798L339.72 168.807L339.184 181.792L349.121 186.391L349.914 166.409L349.845 166.411C350.707 164.876 351.004 163.022 350.528 161.183C349.55 157.404 345.693 155.134 341.914 156.113Z" fill="#A0616A"/>
<path d="M286.378 202.455C284.29 200.386 283.079 197.581 283.034 194.53C282.973 190.438 285.024 186.724 288.52 184.595C292.545 182.143 297.579 182.391 301.345 185.226L332.548 208.719L338.107 174.875L350.044 178.718L347.196 222.788C346.997 225.87 345.255 228.586 342.535 230.052C339.816 231.518 336.59 231.481 333.905 229.954L288.812 204.299C287.907 203.783 287.091 203.162 286.378 202.455Z" fill="#F3722C"/>
<path d="M238.799 137.182C240.794 140.537 239.691 144.875 236.335 146.869C234.798 147.783 233.056 148.04 231.426 147.734L231.419 147.741L222.658 157.34L212.364 153.61L225.869 138.861L225.916 138.912C226.385 137.215 227.479 135.689 229.112 134.718C232.467 132.723 236.804 133.826 238.799 137.182Z" fill="#A0616A"/>
<path d="M242.583 208.787L192.498 195.258C189.516 194.453 187.2 192.207 186.301 189.252C185.402 186.297 186.077 183.141 188.105 180.812L217.11 147.511L228.293 153.186L208.413 181.135L247.112 186.419C251.782 187.057 255.531 190.425 256.664 195.001C257.648 198.974 256.489 203.055 253.565 205.918C251.385 208.053 248.55 209.192 245.611 209.192C244.607 209.192 243.59 209.059 242.583 208.787Z" fill="#F3722C"/>
<path d="M313.989 292.822L243.951 296.035C242.027 293.114 242.548 288.722 245.242 283.221C255.413 262.454 247.689 223.167 242.492 202.71C241.034 196.97 244.948 191.264 250.841 190.674L257.444 190.014L263.549 171.38H284.927L293.797 181.513L308.848 190.657C306.109 218.877 294.435 258.727 311.066 278.712C314.703 283.083 315.734 287.809 313.989 292.822Z" fill="#F3722C"/>
<path d="M271.519 171.81C283.019 171.81 292.342 162.487 292.342 150.987C292.342 139.486 283.019 130.163 271.519 130.163C260.018 130.163 250.695 139.486 250.695 150.987C250.695 162.487 260.018 171.81 271.519 171.81Z" fill="#A0616A"/>
<path d="M295.082 137.658C297.979 127.095 266.403 118.037 260.267 126.543C259.413 125.334 256.26 124.599 254.813 124.97C253.367 125.341 252.15 126.269 250.963 127.167C249.33 128.42 247.639 129.719 246.637 131.522C245.628 133.317 245.472 135.766 246.83 137.324C247.906 138.563 249.796 145.147 251.414 145.474C252.541 145.704 253.491 145.889 254.307 146.023C255.034 144.962 256.889 143.629 256.755 142.345C257.853 143.072 257.452 144.352 257.231 145.659C256.493 150.013 239.884 183.714 249.397 173.783C250.339 174.34 251.504 174.859 252.847 175.334C255.125 171.899 256.995 167.848 258.226 163.611L258.235 163.689C258.659 167.371 261.35 170.392 264.909 171.423C279.189 175.56 290.739 169.49 294.713 158.543C293.258 155.59 292.624 155.911 292.755 155.823C294.57 154.599 297.066 155.4 297.846 157.446C298.077 158.049 298.286 158.564 298.467 158.951C300.537 151.547 302.999 152.615 295.082 137.658Z" fill="#2F2E41"/>
<path d="M285.231 129.994L283.773 122.537C283.65 121.91 283.534 121.23 283.816 120.657C284.18 119.921 285.113 119.616 285.925 119.734C286.738 119.851 287.345 120.593 288.153 120.736C290.963 121.232 294.677 118.457 295.684 125.478C296.103 128.405 300.775 128.715 302.335 131.227C303.894 133.739 304.086 137.366 301.957 139.418C300.257 141.057 297.526 141.247 295.318 140.409C293.109 139.572 291.337 137.88 289.789 136.097C288.241 134.313 286.839 132.383 285.053 130.837" fill="#2F2E41"/>
<path d="M296.195 141.336C290.497 140.54 286.613 138.468 284.651 135.177C282.083 130.87 283.803 126.127 283.878 125.927L285.082 126.375C285.066 126.418 283.506 130.76 285.762 134.53C287.516 137.463 291.086 139.325 296.372 140.063L296.195 141.336Z" fill="#F94144"/>
<path d="M322.934 60.7623C306.183 60.7623 292.553 47.1323 292.553 30.3812C292.553 13.63 306.183 0 322.934 0C339.685 0 353.315 13.63 353.315 30.3812C353.315 47.1323 339.685 60.7623 322.934 60.7623ZM322.934 12.1525C312.882 12.1525 304.705 20.3293 304.705 30.3812C304.705 40.4331 312.882 48.6099 322.934 48.6099C332.986 48.6099 341.163 40.4331 341.163 30.3812C341.163 20.3293 332.986 12.1525 322.934 12.1525Z" fill="#F94144"/>
<path d="M369.678 81.409C368.188 81.409 366.696 80.866 365.524 79.7653L337.009 53.0424C334.558 50.7489 334.434 46.9038 336.73 44.4561C339.02 41.9995 342.866 41.8779 345.316 44.1772L373.831 70.9002C376.282 73.1936 376.406 77.0387 374.11 79.4864C372.914 80.7652 371.297 81.409 369.678 81.409Z" fill="#F94144"/>
<defs>
<clipPath id="clip0_1112_583">
<rect width="52" height="52" fill="white" transform="translate(327 146)"/>
</clipPath>
<clipPath id="clip1_1112_583">
<rect width="104" height="104" fill="white" transform="translate(301 173)"/>
</clipPath>
</defs>
</svg>
